<svg id="vector" xmlns="http://www.w3.org/2000/svg" width="200" height="200" viewBox="0 0 228 228"><path fill="#a4c639" d="M 81.952 138.583 C 89.817 138.583 96.193 144.959 96.193 152.824 L 96.193 213.914 C 96.193 221.779 89.817 228.154 81.952 228.154 C 74.088 228.154 67.712 221.779 67.712 213.914 L 67.712 152.824 C 67.712 144.96 74.088 138.584 81.952 138.584 Z" stroke-width="1" id="path_0"/><path fill="#a4c639" d="M 49.441 65.136 C 49.394 65.676 49.353 66.222 49.353 66.774 L 49.353 159.331 C 49.353 169.285 57.232 177.304 67.013 177.304 L 161.137 177.304 C 170.919 177.304 178.798 169.284 178.798 159.331 L 178.798 66.774 C 178.798 66.222 178.778 65.674 178.732 65.136 L 49.441 65.136 Z" stroke-width="1" id="path_1"/><path fill="#a4c639" d="M 146.2 138.583 C 154.065 138.583 160.441 144.959 160.441 152.824 L 160.441 213.914 C 160.441 221.779 154.065 228.154 146.2 228.154 C 138.336 228.154 131.96 221.779 131.96 213.914 L 131.96 152.824 C 131.96 144.96 138.336 138.584 146.2 138.584 Z M 26.472 73.373 C 34.336 73.373 40.712 79.749 40.712 87.614 L 40.712 148.704 C 40.712 156.569 34.336 162.945 26.472 162.945 C 18.607 162.945 12.231 156.569 12.231 148.705 L 12.231 87.615 C 12.23 79.75 18.606 73.373 26.472 73.373 Z M 201.681 73.373 C 209.545 73.373 215.921 79.749 215.921 87.614 L 215.921 148.704 C 215.921 156.569 209.545 162.945 201.681 162.945 C 193.816 162.945 187.44 156.569 187.44 148.705 L 187.44 87.615 C 187.44 79.75 193.816 73.373 201.681 73.373 Z M 49.857 59.056 C 50.253 30.626 75.067 7.316 106.919 4.244 L 121.231 4.244 C 153.085 7.317 177.897 30.628 178.293 59.056 L 49.857 59.056 Z" stroke-width="1" id="path_2"/><path fill="none" d="M 54.81 1.5 L 69.832 27.52 M 173.343 1.5 L 158.32 27.52" stroke="#a4c639" stroke-width="3" stroke-linecap="round" stroke-linejoin="round" id="path_3"/><path fill="#ffffff" d="M 94.945 33.578 C 94.957 37.552 91.668 40.783 87.598 40.794 C 83.53 40.804 80.222 37.592 80.21 33.618 L 80.21 33.578 C 80.199 29.603 83.488 26.373 87.557 26.362 C 91.625 26.351 94.933 29.562 94.945 33.538 L 94.945 33.578 Z M 149.941 33.578 C 149.953 37.552 146.664 40.783 142.594 40.794 C 138.526 40.804 135.218 37.592 135.206 33.618 L 135.206 33.578 C 135.195 29.603 138.484 26.373 142.553 26.362 C 146.621 26.351 149.929 29.562 149.941 33.538 L 149.941 33.578 Z" stroke-width="1" id="path_4"/></svg>