<?xml version="1.0" encoding="UTF-8" standalone="no"?>
<svg id="svg2" xmlns:rdf="http://www.w3.org/1999/02/22-rdf-syntax-ns#" xmlns="http://www.w3.org/2000/svg" viewBox="0 0 163.55 236.23" version="1.1" xmlns:cc="http://creativecommons.org/ns#" xmlns:xlink="http://www.w3.org/1999/xlink" xmlns:dc="http://purl.org/dc/elements/1.1/">
 <defs id="defs4">
  <style id="style4022" type="text/css">.fil0 {fill:black}
    .fil20 {fill:#E5C93A}
    .fil17 {fill:url(#id0)}
    .fil16 {fill:url(#id1)}
    .fil18 {fill:url(#id2)}
    .fil10 {fill:url(#id3)}
    .fil9 {fill:url(#id4)}
    .fil15 {fill:url(#id5)}
    .fil19 {fill:url(#id6)}
    .fil11 {fill:url(#id7)}
    .fil13 {fill:url(#id8)}
    .fil12 {fill:url(#id9)}
    .fil14 {fill:url(#id10)}
    .fil3 {fill:url(#id11)}
    .fil2 {fill:url(#id12)}
    .fil7 {fill:url(#id13)}
    .fil1 {fill:url(#id14)}
    .fil8 {fill:url(#id15)}
    .fil4 {fill:url(#id16)}
    .fil5 {fill:url(#id17)}
    .fil6 {fill:url(#id18)}</style>
  <linearGradient id="linearGradient23471" gradientUnits="userSpaceOnUse" gradientTransform="matrix(-63.5098,36.6674,63.2145,109.491,331.662,334.337)">
   <stop id="stop23473" stop-color="#dfdae7" offset="0"/>
   <stop id="stop23475" stop-color="#213664" offset="1"/>
  </linearGradient>
  <linearGradient id="linearGradient23817" y2="3980.7" gradientUnits="userSpaceOnUse" x2="2367.6" gradientTransform="matrix(0.12113983,0,0,-0.12113983,-282.2841,606.9723)" y1="4081.7" x1="3004.4">
   <stop id="stop23701" stop-color="#8a89ae" offset="0"/>
   <stop id="stop23703" stop-color="#8080a7" offset="0.65364"/>
   <stop id="stop23705" stop-color="#414c7b" offset="1"/>
  </linearGradient>
  <linearGradient id="linearGradient23843" y2="4255.9" xlink:href="#linearGradient23471" gradientUnits="userSpaceOnUse" x2="2997.1" gradientTransform="matrix(0.12113983,0,0,-0.12113983,-282.2841,606.9723)" y1="3896.3" x1="3619.5"/>
  <linearGradient id="linearGradient23848" y2="4786" xlink:href="#linearGradient23471" gradientUnits="userSpaceOnUse" x2="3328.5" gradientTransform="matrix(0.12113983,0,0,-0.12113983,2594.8648,-1771.3649)" y1="4434.4" x1="2728.4"/>
 </defs>
 <metadata id="metadata7">
  <rdf:RDF>
   <cc:Work rdf:about="">
    <dc:format>image/svg+xml</dc:format>
    <dc:type rdf:resource="http://purl.org/dc/dcmitype/StillImage"/>
    <dc:title/>
   </cc:Work>
  </rdf:RDF>
 </metadata>
 <g id="layer1" transform="translate(-2877.1489,2378.3372)">
  <g id="g23850" fill-rule="nonzero">
   <path id="path23461" d="M5.4062,46.781l-0.875,86.469,76.25,45,0.281-27.19-52.906-29.81v-60.906l0.344-0.188-23.094-13.375zm40.938,23.657l-0.032,0.031-0.468,40.191,35.406,20.46,0.406-40.245-35.312-20.437z" transform="translate(2877.1489,-2378.3372)" fill="url(#linearGradient23817)"/>
   <path id="path23477" d="M156.19,47.656l-39.53,22.938-0.57,0.312-34.434,19.969-0.406,40.245,34.22-19.06,0.44-13.81,17.25-10.312v32.902l-52.066,30.25-0.032-0.03-0.281,27.19,75.099-42.94,0.31-87.654z" transform="translate(2877.1489,-2378.3372)" fill="url(#linearGradient23843)"/>
   <path id="path23493" fill="url(#linearGradient23848)" d="m2958.1-2374.7-75.5,43.125,23.094,13.375,52.281-29.906,35.594,21.375,23.094-13.75-58.562-34.219zm75.25,43.969-39.5,22.969,39.531-22.938-0.031-0.031zm-74.469,2.625-35.344,20.188,35.312,20.438,34.438-19.969-34.406-20.656z"/>
   <path id="path23497" fill="#b5bcd7" d="m2969.6-2173.8,0-1.7649-5.0419,0c-0.6481,0-1.2598,0.1441-1.8014,0.3961-0.5403,0.2532-0.9715,0.6129-1.2962,1.0453-0.3234,0.4313-0.4687,0.9014-0.5051,1.4404v5.4381c0.036,0.5051,0.1817,0.9727,0.4688,1.4063,0.3246,0.4313,0.7559,0.7548,1.2611,1.043,0.5403,0.2532,1.1156,0.3974,1.8013,0.3974h5.1134v-1.765h-4.899c-0.3961,0-0.7559-0.109-1.0781-0.3247-0.2907-0.2156-0.47-0.4676-0.47-0.8274v-2.0169h6.4471v-1.8014h-6.4471v-1.4767c0-0.361,0.1793-0.648,0.47-0.8649,0.3222-0.2169,0.682-0.3247,1.0781-0.3247h4.899"/>
   <path id="path23499" fill="#b5bcd7" d="m2982.7-2164.4,0-8.716,4.5367,8.716,2.1975,0,0-11.167-2.2326,0,0,7.1326-3.7469-7.1326-2.9521,0,0,11.167,2.1974,0,0,0"/>
   <path id="path23501" fill="#b5bcd7" d="m3000.2-2175.6,0,11.202,5.4017,0c0.6845-0.035,1.2962-0.1442,1.8377-0.3962,0.5754-0.287,1.0079-0.6117,1.3313-1.0442,0.3247-0.4311,0.4676-0.9363,0.504-1.4766v-5.4029c-0.036-0.539-0.1793-1.0091-0.504-1.4404-0.3234-0.4324-0.7559-0.7921-1.3313-1.0453-0.5415-0.252-1.1532-0.3961-1.8377-0.3961h-5.4017zm6.3757,2.0896c0.3222,0.2169,0.4663,0.5039,0.5028,0.8649v5.295c-0.037,0.3598-0.1806,0.6481-0.5028,0.8638-0.2895,0.2519-0.6505,0.3597-1.0467,0.3597h-3.1327v-7.7432h3.1327c0.3962,0,0.7572,0.1078,1.0467,0.3598"/>
   <path id="path23503" fill="#b5bcd7" d="m3026.9-2175.3c-0.5416-0.2519-1.1533-0.3609-1.8365-0.3973h-1.9819c-0.6844,0.036-1.2962,0.1454-1.8377,0.3973-0.5754,0.2884-1.009,0.6106-1.3325,1.0443-0.3247,0.4312-0.504,0.9363-0.504,1.4766v5.5821c0,0.5403,0.1793,1.0092,0.504,1.4417,0.3235,0.4324,0.7571,0.7922,1.3325,1.0441,0.5415,0.252,1.1533,0.3962,1.8377,0.3962h1.9819c0.6832,0,1.2949-0.1442,1.8365-0.3962,0.5753-0.2519,1.0079-0.6117,1.3325-1.0441,0.3247-0.4325,0.504-0.9365,0.504-1.4417v-5.5821c-0.035-0.5403-0.1793-1.0454-0.504-1.4766-0.3246-0.4337-0.7572-0.7559-1.3325-1.0443zm-0.865,1.6924c0.3234,0.2519,0.504,0.539,0.504,0.865v5.4731c0,0.3245-0.1806,0.6128-0.504,0.8648-0.2883,0.2169-0.6493,0.361-1.0442,0.361h-1.8365c-0.3973,0-0.7571-0.1441-1.0818-0.361-0.287-0.252-0.4676-0.5403-0.4676-0.8648v-5.4731c0-0.326,0.1805-0.6131,0.4676-0.865,0.3247-0.2169,0.6845-0.3246,1.0818-0.3611h1.8365c0.3949,0.037,0.7559,0.1442,1.0442,0.3611"/>
   <path id="path23505" fill="#231f20" d="m3031.4-2157.3,0-3.06-15.453,0,0,14.551,15.597,0,0-3.278-11.525,0,0-2.7378,6.6263,0,0-3.0599-6.6263,0,0-2.4156,11.381,0,0,0"/>
   <path id="path23507" fill="#231f20" d="m3014.2-2157.4c0.035-1.0079-0.2519-1.8001-0.8649-2.269-0.5779-0.5039-1.4768-0.7559-2.7014-0.7559h-12.714v14.586h11.814c3.0964-0.035,4.6095-1.0431,4.6095-3.0963v-1.7663c0-1.2235-0.5392-2.1236-1.6572-2.6275,1.009-0.4688,1.5142-1.261,1.5142-2.378v-1.6935zm-3.9262,0.073c0.1442,0.1441,0.2169,0.2883,0.1793,0.5051v1.3325c0.038,0.1793-0.035,0.3599-0.1793,0.4676l-1.0103,0.1793h-7.2744v-2.6286h7.2744c0.5427,0,0.9026,0.072,1.0103,0.1441zm-8.2847,8.2835,0-2.8456,7.3108,0c0.5415,0,0.8662,0.073,1.0455,0.1806,0.1453,0.1453,0.2156,0.361,0.2156,0.7207v1.0443c0,0.3247-0.07,0.5765-0.2156,0.6844-0.1793,0.1442-0.504,0.2156-1.0455,0.2156h-7.3108"/>
   <path id="path23509" fill="#231f20" d="m2996.2-2160.4-4.0704,0,0,11.273-8.8249,0,0-11.273-4.0691,0,0,10.949c-0.038,0.9,0.1066,1.622,0.3585,2.1612,0.2169,0.5039,0.6494,0.9011,1.226,1.118,0.5766,0.2508,1.3326,0.3586,2.3404,0.3234h9.077c1.0091,0.035,1.8001-0.073,2.3768-0.3234,0.5754-0.2169,0.9728-0.6141,1.2259-1.118,0.252-0.5392,0.3598-1.2612,0.3598-2.1612v-10.949"/>
   <path id="path23511" fill="#231f20" d="m2977.2-2158.9c-0.2544-0.539-0.6856-0.9001-1.2259-1.1519-0.5766-0.2169-1.3689-0.3248-2.3416-0.3248h-8.8953c-1.0091,0-1.7663,0.1079-2.3429,0.3248-0.5753,0.2518-1.0079,0.6128-1.2235,1.1519-0.252,0.5403-0.3961,1.2599-0.3597,2.1612v7.3108c-0.037,0.9,0.1077,1.622,0.3597,2.1612,0.2156,0.5039,0.6482,0.9011,1.2235,1.118,0.5766,0.2508,1.3338,0.3586,2.3429,0.3234h8.8953c0.9727,0.035,1.765-0.073,2.3416-0.3234,0.5403-0.2169,0.9715-0.6141,1.2259-1.118,0.2145-0.5392,0.3598-1.2612,0.3598-2.1612v-2.6651l-4.0715,0.037v2.9534h-8.6433v-8.0668h8.6433v2.5912h4.0715v-2.1599c0-0.9352-0.1453-1.656-0.3598-2.1612"/>
   <path id="path23513" fill="#231f20" d="m2957.8-2157.3,0-3.06-15.453,0,0,14.551,15.597,0,0-3.278-11.526,0,0-2.7378,6.6276,0,0-3.0599-6.6276,0,0-2.4156,11.382,0,0,0"/>
   <path id="path23515" fill="#b5bcd7" d="m2895.9-2175.6-2.1975,0,0,7.1326-3.7456-7.1326-2.9898,0,0,11.167,2.1975,0,0-8.716,4.5742,8.716,2.1612,0,0-11.167"/>
   <path id="path23517" fill="#b5bcd7" d="m2910.8-2164.4,0-11.167-2.5208,0,0,11.167,2.5208,0,0,0"/>
   <path id="path23519" fill="#b5bcd7" d="m2925.4-2164.4,0-8.716,4.5379,8.716,2.1975,0,0-11.167-2.2326,0,0,7.1326-3.7469-7.1326-2.9885,0,0,11.167,2.2326,0,0,0"/>
   <path id="path23521" fill="#b5bcd7" d="m2942-2175.6,0,1.7649,3.7093,0,0,9.4017,2.378,0,0-9.4017,3.7457,0,0-1.7649-9.833,0,0,0"/>
   <path id="path23523" fill="#231f20" d="m2936.8-2160.4-6.1962,10.301-6.1589-10.301-3.7093,0,0,11.994-7.2404-11.994-3.6378,0-8.6797,14.551,10.877,0,0-3.2779-4.8626,0,4.5027-7.2394,6.0872,10.517,6.6992,0,0-7.7796,4.6456,7.7796,2.9898,0,4.6832-7.7796,0,7.7796,3.7457,0,0-14.551-3.7457,0,0,0"/>
   <path id="path23525" fill="#231f20" d="m2901.5-2157.2,0-3.1703-13.724,0c-0.9715,0-1.765,0.1079-2.3417,0.3248-0.5753,0.2518-0.9715,0.6128-1.2235,1.1519-0.2531,0.5403-0.361,1.2599-0.361,2.1612v7.3108c0,0.9,0.1079,1.622,0.361,2.1612,0.252,0.5039,0.6482,0.9011,1.2235,1.118,0.5767,0.2508,1.3702,0.3586,2.3417,0.3234h9.9783c1.4391,0.035,2.4483-0.2168,3.06-0.7558,0.5766-0.5767,0.8649-1.5131,0.8298-2.8468v-5.1508h-9.4368v3.0635h5.4743v2.412h-9.7615v-8.1031h13.58"/>
   <path id="path23527" fill="#231f20" d="m3040.2-2149.1-0.6165,0-0.7427,2.3477c-0.1223,0.1866-0.1853,0.3731-0.1853,0.4955-0.063-0.1224-0.1259-0.2472-0.1865-0.4313l-0.8044-2.4119h-0.6179v3.3375h0.3732v-2.8432l0.9885,2.8432h0.3683l0.9896-2.7815v2.7815h0.4337v-3.3375"/>
   <path id="path23529" fill="#231f20" d="m3035.5-2148.7,1.0526,0,0-0.4325-2.5972,0,0,0.4325,1.1132,0,0,2.9049,0.4314,0,0-2.9049"/>
  </g>
 </g>
</svg>