<svg width="256" height="256" viewBox="0 0 256 256" fill="none" xmlns="http://www.w3.org/2000/svg">
<path fill-rule="evenodd" clip-rule="evenodd" d="M76.599 191.563C76.9774 193.325 77.9394 194.907 79.3292 196.054L122.95 232.046C125.88 234.464 130.106 234.487 133.063 232.103L177.735 196.084C179.179 194.92 180.174 193.29 180.548 191.473L207.543 60.635C208.305 56.9424 206.385 53.2191 202.935 51.6982L134.92 21.7141L131.211 20.0786C129.155 19.1723 126.812 19.1723 124.756 20.0786L121.047 21.7141L53.0808 51.6765C49.6086 53.2072 47.6895 56.9667 48.4863 60.6767L76.599 191.563ZM143.738 66.303L127.548 38.2768L111.359 66.303L123.051 175.533L127.998 179.486L132.945 175.533L143.738 66.303ZM134.797 177.036L156.981 173.19H156.983L162.633 183.533L156.983 193.877L156.981 193.876L134.797 190.183L130.254 183.533L134.797 177.036ZM135.641 212.825L132.799 191.872L127.996 187.581L123.081 191.872L120.351 212.825L127.996 218.161L135.641 212.825ZM121.203 177.036L99.0189 173.19H99.0171L93.3669 183.533L99.0171 193.877L99.0189 193.876L121.203 190.183L125.746 183.533L121.203 177.036Z" fill="white"/>
</svg>
