<?xml version="1.0" encoding="utf-8"?>

<!DOCTYPE svg PUBLIC "-//W3C//DTD SVG 1.1//EN" "http://www.w3.org/Graphics/SVG/1.1/DTD/svg11.dtd">
<!-- Uploaded to: SVG Repo, www.svgrepo.com, Generator: SVG Repo Mixer Tools -->
<svg height="800px" width="800px" version="1.1" id="_x32_" xmlns="http://www.w3.org/2000/svg" xmlns:xlink="http://www.w3.org/1999/xlink" 
	 viewBox="0 0 512 512"  xml:space="preserve">
<style type="text/css">
	.st0{fill:#000000;}
</style>
<g>
	<path class="st0" d="M10.766,264.966v182.186c0.009,35.829,29.029,64.84,64.848,64.848h360.772
		c35.828-0.009,64.848-29.02,64.848-64.848V264.966v-0.753H10.766V264.966z M454.238,360.233c7.754,0,14.037,6.284,14.037,14.037
		c0,7.754-6.283,14.037-14.037,14.037c-7.753,0-14.037-6.283-14.037-14.037C440.201,366.517,446.485,360.233,454.238,360.233z
		 M423.731,329.708c7.754,0,14.037,6.266,14.037,14.037c0,7.736-6.283,14.037-14.037,14.037c-7.754,0-14.046-6.301-14.046-14.037
		C409.685,335.974,415.977,329.708,423.731,329.708z M423.731,390.74c7.754,0,14.037,6.284,14.037,14.037
		c0,7.754-6.283,14.037-14.037,14.037c-7.754,0-14.046-6.283-14.046-14.037C409.685,397.024,415.977,390.74,423.731,390.74z
		 M393.207,360.233c7.744,0,14.037,6.284,14.037,14.037c0,7.754-6.292,14.037-14.037,14.037c-7.762,0-14.037-6.283-14.037-14.037
		C379.169,366.517,385.444,360.233,393.207,360.233z M154.469,298.842h203.066V449.69H154.469V298.842z M48.406,362.657h30.21
		v-30.21h23.226v30.21h30.21v23.226h-30.21v30.21H78.616v-30.21h-30.21V362.657z"/>
	<path class="st0" d="M436.385,0H75.614C39.795,0.009,10.775,29.02,10.766,64.848v182.196v0.735h490.468v-0.735V64.848
		C501.234,29.02,472.214,0.009,436.385,0z M386.678,206.174H125.322V50.845h261.356V206.174z"/>
</g>
</svg>