<svg width="91" height="139" viewBox="0 0 91 139" fill="none" xmlns="http://www.w3.org/2000/svg">
<g clip-path="url(#clip0_7_13)">
<mask id="mask0_7_13" style="mask-type:luminance" maskUnits="userSpaceOnUse" x="-598" y="-1" width="1000" height="141">
<path d="M-598 139.012H402V-0.0258596H-598V139.012Z" fill="white"/>
</mask>
<g mask="url(#mask0_7_13)">
<path d="M132.41 52.6691C122.761 49.4599 115.418 47.0689 115.418 40.2786C115.418 35.7623 119.392 31.5011 126.767 31.5011C134.217 31.5011 138.627 35.4222 142.229 38.3658L158.764 26.8573C151.729 18.1647 139.742 10.8856 127.065 10.8856C109.489 10.8856 94.3776 23.7968 94.3776 40.5867C94.3776 53.1473 102.836 64.9747 120.487 70.8299C131.549 74.5279 138.488 76.7276 138.488 83.8261C138.488 88.6931 133.558 93.1031 127.543 93.1031C120.158 93.1031 114.079 88.1193 109.446 83.9962L91.891 96.2486C100.615 106.386 114.441 113.793 127.022 113.793C146.565 113.793 159.911 98.9052 159.911 83.3692C159.911 71.3293 153.196 59.5976 132.41 52.6691ZM364.919 95.0903C354.42 95.0903 346.673 86.8441 346.673 76.4088C346.673 65.9842 354.42 57.7274 364.919 57.7274C375.396 57.7274 383.409 66.1117 383.409 76.4088C383.409 86.7059 375.396 95.0903 364.919 95.0903ZM365.588 39.7685C356.12 39.7685 348.713 44.6355 347.119 46.9839H346.79V41.8938H326.748V139.01H346.79V105.844H347.119C348.713 108.193 356.12 113.049 365.588 113.049C385.354 113.049 402.005 96.5567 402.005 76.4088C402.005 56.2715 385.354 39.7685 365.588 39.7685ZM208.082 39.7898C200.579 39.7898 193.874 42.8396 189.783 47.7915H189.549V13.7972H169.518V110.924H189.549V77.3439C189.549 63.9439 196.839 58.1312 205.117 58.1312C210.855 58.1312 219.611 61.7761 219.611 75.3462V110.881H239.664V73.8903C239.664 50.682 223.618 39.7898 208.082 39.7898ZM82.9328 10.4392C82.7947 10.2905 82.5609 10.3011 82.4759 10.4605L67.6837 30.8847C67.62 30.9803 67.62 31.0972 67.6837 31.161C67.7794 31.246 67.875 31.2566 67.96 31.2248L89.8295 18.6323C89.9782 18.526 90.042 18.3135 89.9038 18.1647L82.9328 10.4392ZM44.0928 48.7904C49.6824 48.7904 54.0924 50.8307 58.1517 54.5819L21.9259 75.463C19.2905 61.6273 30.002 48.7904 44.0928 48.7904ZM44.7623 95.1859C39.1834 95.1859 32.8606 92.8799 29.6088 88.8312L69.8834 65.4422C78.5122 60.469 82.5184 56.1015 78.7779 49.6512C73.0076 40.523 58.4386 30.8847 42.7007 30.8847C20.4169 30.8847 2.22424 50.6182 2.22424 72.4876C2.22424 95.9935 22.8291 114.122 45.453 114.122C66.3448 114.122 84.9944 99.0858 86.0252 77.3652H65.2821C64.3364 87.0885 56.1858 95.1859 44.7623 95.1859ZM61.0953 26.4428L74.5272 5.10472C74.591 4.9347 74.5485 4.71154 74.3678 4.66903L64.5702 1.08789C64.4108 1.02413 64.1982 1.15165 64.1876 1.33231L60.7127 26.3153C60.7127 26.4216 60.7446 26.5172 60.8615 26.5597C60.9571 26.5916 61.0528 26.5491 61.0953 26.4428ZM283.211 94.9734C273.19 94.9734 265.04 86.6741 265.04 76.4407C265.04 66.2073 273.19 57.8868 283.211 57.8868C293.19 57.8868 301.329 66.2073 301.329 76.4407C301.329 86.6741 293.19 94.9734 283.211 94.9734ZM283.211 39.7685C262.861 39.7685 246.369 56.2184 246.369 76.4088C246.369 96.6099 262.861 113.049 283.211 113.049C303.529 113.049 320.011 96.6099 320.011 76.4088C320.011 56.2184 303.529 39.7685 283.211 39.7685ZM52.6684 25.699C52.7641 25.6777 52.8385 25.5927 52.8491 25.4864L54.6662 0.322771C54.6662 0.14212 54.4962 -0.027892 54.2943 0.00398765L44.0184 1.45981C43.7953 1.48107 43.6996 1.67234 43.7634 1.87424L52.424 25.5396C52.4453 25.6458 52.5622 25.699 52.6684 25.699Z" fill="#F68B32"/>
</g>
</g>
<defs>
<clipPath id="clip0_7_13">
<rect width="91" height="139" fill="white"/>
</clipPath>
</defs>
</svg>
